<?xml version="1.0" standalone="no"?>
<!DOCTYPE svg PUBLIC "-//W3C//DTD SVG 20010904//EN"
 "http://www.w3.org/TR/2001/REC-SVG-20010904/DTD/svg10.dtd">
<svg version="1.0" xmlns="http://www.w3.org/2000/svg"
 width="157.000000pt" height="157.000000pt" viewBox="0 0 157.000000 157.000000"
 preserveAspectRatio="xMidYMid meet">
<metadata>
Created by potrace 1.14, written by Peter Selinger 2001-2017
</metadata>
<g transform="translate(0.000000,157.000000) scale(0.100000,-0.100000)"
fill="#000000" stroke="none">
<path d="M110 1340 c0 -17 56 -91 84 -112 13 -9 -12 -118 -28 -124 -7 -3 -10
-18 -8 -39 3 -23 0 -37 -9 -40 -10 -4 -14 -23 -14 -59 0 -62 10 -80 24 -43 22
56 102 217 109 217 4 0 45 -38 91 -84 l84 -84 -7 -49 -6 -48 20 42 c15 35 26
44 59 53 54 14 52 24 -2 16 l-43 -7 -74 91 c-41 51 -75 96 -75 102 0 7 55 32
123 56 67 25 121 50 119 56 -4 11 -117 17 -117 5 0 -4 -19 -9 -42 -12 -24 -3
-68 -10 -98 -16 l-55 -11 -40 43 c-35 39 -73 67 -89 67 -3 0 -6 -9 -6 -20z"/>
<path d="M910 1343 c-128 -15 -295 -79 -303 -117 -10 -47 -8 -166 2 -166 6 0
33 16 60 35 72 52 171 86 272 92 127 8 196 -22 239 -107 19 -37 45 -168 36
-177 -2 -3 -51 -11 -108 -19 -320 -43 -392 -61 -479 -122 -169 -118 -183 -402
-27 -534 66 -57 143 -81 258 -80 124 0 189 23 270 98 32 31 62 64 65 75 14 43
25 14 25 -66 l0 -85 90 0 90 0 0 124 c0 97 3 126 15 136 21 17 28 70 16 111
l-11 34 5 -32 c5 -38 -4 -93 -16 -93 -4 0 -8 124 -8 276 -1 290 -9 362 -50
442 -25 48 -86 109 -134 134 -71 36 -200 53 -307 41z m307 -698 c-6 -93 -25
-175 -42 -175 -8 0 -129 62 -203 104 -35 20 -67 36 -70 36 -10 0 82 -60 176
-115 45 -26 82 -52 82 -57 0 -22 -95 -98 -146 -117 -192 -72 -362 42 -325 219
25 122 80 149 391 194 52 7 106 14 119 15 l24 1 -6 -105z"/>
</g>
</svg>
